<?xml version="1.0" encoding="utf-8"?>
<!-- Generator: Adobe Illustrator 23.0.1, SVG Export Plug-In . SVG Version: 6.00 Build 0)  -->
<svg version="1.1" id="Layer_1" xmlns="http://www.w3.org/2000/svg" xmlns:xlink="http://www.w3.org/1999/xlink" x="0px" y="0px"
	 viewBox="0 0 1100 500" style="enable-background:new 0 0 1100 500;" xml:space="preserve">
<style type="text/css">
	.st0{fill:#34495E;}
</style>
<path class="st0" d="M365,96.7c-51,0-92.4,41.5-92.4,92.4s41.5,92.4,92.4,92.4c51,0,92.4-41.5,92.4-92.4
	C457.5,138.2,416,96.7,365,96.7 M365,250.8c-34,0-61.6-27.6-61.6-61.6s27.6-61.6,61.6-61.6s61.6,27.6,61.6,61.6
	C426.6,223.1,399,250.8,365,250.8 M519.1,4.2h30.8V277h-30.8V4.2z M1073.8,101.3V277H1043V132.1h-61.6V277h-30.8V132.1H889V277
	h-30.8V101.3H1073.8z M216.5,69.3L172,113.8c-15.1-10.8-33.6-17.1-53.5-17.1c-51,0-92.4,41.5-92.4,92.4c0,45.7,33.4,83.8,77,91.1
	v33.4c-43.7,7.4-77,45.4-77,91.1c0,51,41.5,92.4,92.4,92.4c51,0,92.4-41.5,92.4-92.4c0-45.7-33.4-83.8-77-91.1v-33.4
	c43.7-7.4,77-45.4,77-91.1c0-19.9-6.4-38.4-17.1-53.5l44.5-44.5L216.5,69.3z M180.1,404.9c0,34-27.6,61.6-61.6,61.6
	s-61.6-27.7-61.6-61.6c0-34,27.7-61.6,61.6-61.6C152.5,343.2,180.1,370.9,180.1,404.9 M118.5,250.8c-34,0-61.6-27.6-61.6-61.6
	s27.7-61.6,61.6-61.6c34,0,61.6,27.6,61.6,61.6C180.1,223.1,152.5,250.8,118.5,250.8 M705.5,96.7c-26.2,0-50,9.6-66.9,27
	c-16.5,16.9-25.5,40.2-25.5,65.4c0,25.4,8.8,48.6,24.9,65.4c17,17.7,40.3,27.1,67.6,27.1c29.3,0,59.6-14.2,75.5-35.4l-24.7-18.5
	c-10.2,13.6-31.1,23.1-50.8,23.1c-32,0-54.9-18.7-60.4-47.8h149.7v-15.4c0-24.5-8.7-47.2-24.4-63.9C754,106.3,731,96.7,705.5,96.7
	 M645.9,172.2c6.6-27,29.3-44.7,59.6-44.7c29.2,0,51,17.7,56.9,44.7H645.9z"/>
</svg>
